<mxfile host="65bd71144e">
    <diagram id="ACSWEABGttGZcb6EK8U8" name="Page-1">
        <mxGraphModel dx="1416" dy="929" grid="1" gridSize="10" guides="1" tooltips="1" connect="1" arrows="1" fold="1" page="1" pageScale="1" pageWidth="1654" pageHeight="1169" math="0" shadow="0">
            <root>
                <mxCell id="0"/>
                <mxCell id="1" parent="0"/>
                <mxCell id="3" value="Pokestack" style="shape=umlFrame;whiteSpace=wrap;html=1;width=120;height=30;boundedLbl=1;verticalAlign=middle;align=left;spacingLeft=5;" vertex="1" parent="1">
                    <mxGeometry x="420" y="160" width="390" height="560" as="geometry"/>
                </mxCell>
                <mxCell id="8" style="edgeStyle=none;html=1;exitX=0.5;exitY=0.5;exitDx=0;exitDy=0;exitPerimeter=0;entryX=0;entryY=1;entryDx=0;entryDy=0;" edge="1" parent="1" source="4" target="5">
                    <mxGeometry relative="1" as="geometry"/>
                </mxCell>
                <mxCell id="9" style="edgeStyle=none;html=1;exitX=0.5;exitY=0.5;exitDx=0;exitDy=0;exitPerimeter=0;entryX=0;entryY=1;entryDx=0;entryDy=0;" edge="1" parent="1" source="4" target="7">
                    <mxGeometry relative="1" as="geometry"/>
                </mxCell>
                <mxCell id="10" style="edgeStyle=none;html=1;exitX=0.5;exitY=0.5;exitDx=0;exitDy=0;exitPerimeter=0;entryX=0.022;entryY=0.684;entryDx=0;entryDy=0;entryPerimeter=0;" edge="1" parent="1" source="4" target="6">
                    <mxGeometry relative="1" as="geometry"/>
                </mxCell>
                <mxCell id="12" style="edgeStyle=none;html=1;exitX=0.5;exitY=0.5;exitDx=0;exitDy=0;exitPerimeter=0;entryX=0;entryY=0.5;entryDx=0;entryDy=0;" edge="1" parent="1" source="4" target="11">
                    <mxGeometry relative="1" as="geometry"/>
                </mxCell>
                <mxCell id="18" style="edgeStyle=none;html=1;exitX=0.5;exitY=0.5;exitDx=0;exitDy=0;exitPerimeter=0;entryX=0;entryY=0.5;entryDx=0;entryDy=0;" edge="1" parent="1" source="4" target="13">
                    <mxGeometry relative="1" as="geometry"/>
                </mxCell>
                <mxCell id="19" style="edgeStyle=none;html=1;exitX=0.5;exitY=0.5;exitDx=0;exitDy=0;exitPerimeter=0;entryX=0;entryY=0.5;entryDx=0;entryDy=0;" edge="1" parent="1" source="4" target="15">
                    <mxGeometry relative="1" as="geometry"/>
                </mxCell>
                <mxCell id="20" style="edgeStyle=none;html=1;exitX=0.5;exitY=0.5;exitDx=0;exitDy=0;exitPerimeter=0;entryX=0;entryY=0;entryDx=0;entryDy=0;" edge="1" parent="1" source="4" target="16">
                    <mxGeometry relative="1" as="geometry"/>
                </mxCell>
                <mxCell id="21" style="edgeStyle=none;html=1;exitX=0.5;exitY=0.5;exitDx=0;exitDy=0;exitPerimeter=0;entryX=0;entryY=0;entryDx=0;entryDy=0;" edge="1" parent="1" source="4" target="17">
                    <mxGeometry relative="1" as="geometry"/>
                </mxCell>
                <mxCell id="22" style="edgeStyle=none;html=1;exitX=0.5;exitY=0.5;exitDx=0;exitDy=0;exitPerimeter=0;entryX=0;entryY=0.5;entryDx=0;entryDy=0;" edge="1" parent="1" source="4" target="14">
                    <mxGeometry relative="1" as="geometry"/>
                </mxCell>
                <mxCell id="4" value="Utilisateur / dresseur" style="shape=umlActor;verticalLabelPosition=bottom;verticalAlign=top;html=1;" vertex="1" parent="1">
                    <mxGeometry x="230" y="390" width="30" height="60" as="geometry"/>
                </mxCell>
                <mxCell id="5" value="Créer un contact" style="ellipse;" vertex="1" parent="1">
                    <mxGeometry x="430" y="200" width="130" height="70" as="geometry"/>
                </mxCell>
                <mxCell id="6" value="Modifier un contact" style="ellipse;" vertex="1" parent="1">
                    <mxGeometry x="600" y="310" width="130" height="70" as="geometry"/>
                </mxCell>
                <mxCell id="7" value="Supprimmer un contact" style="ellipse;" vertex="1" parent="1">
                    <mxGeometry x="570" y="190" width="130" height="70" as="geometry"/>
                </mxCell>
                <mxCell id="11" value="consulter les contacts" style="ellipse;" vertex="1" parent="1">
                    <mxGeometry x="670" y="240" width="130" height="70" as="geometry"/>
                </mxCell>
                <mxCell id="13" value="appeler un contact" style="ellipse;" vertex="1" parent="1">
                    <mxGeometry x="490" y="380" width="130" height="70" as="geometry"/>
                </mxCell>
                <mxCell id="14" value="partager sa carte" style="ellipse;" vertex="1" parent="1">
                    <mxGeometry x="650" y="550" width="123" height="70" as="geometry"/>
                </mxCell>
                <mxCell id="15" value="créer sa carte" style="ellipse;" vertex="1" parent="1">
                    <mxGeometry x="590" y="470" width="123" height="70" as="geometry"/>
                </mxCell>
                <mxCell id="16" value="consulter les pokemons" style="ellipse;" vertex="1" parent="1">
                    <mxGeometry x="427" y="540" width="133" height="70" as="geometry"/>
                </mxCell>
                <mxCell id="17" value="voir le lieu d'habitation &#10;d'un contact sur une carte" style="ellipse;" vertex="1" parent="1">
                    <mxGeometry x="440" y="630" width="150" height="70" as="geometry"/>
                </mxCell>
            </root>
        </mxGraphModel>
    </diagram>
</mxfile>